<svg xmlns="http://www.w3.org/2000/svg" xmlns:xlink="http://www.w3.org/1999/xlink" xmlns:fi="http://pattern.flaticon.com/" x="0" y="0" width="3000" height="1500" viewBox="0 0 8076.923076923076 4038.461538461538"><rect x="0px" y="0px" width="100%" height="100%" opacity="1" fill="#7dcaff"/><defs><g transform="matrix(0.14690365181155499 -0.14690365181155496 0.14690365181155496 0.14690365181155499 273.78533027248386 81)" id="L1_212"><path d="m322.297 69.307h33.041c9.716 0 17.593 7.877 17.593 17.593v10.299l-56.271 10.153z" fill="#ffe07d"/><path d="m316.078 108.805 56.853-11.607v-10.298c0-3.849-1.236-7.409-3.333-10.305h-47.302z" fill="#ffd064"/><path d="m189.703 69.307h-33.041c-9.716 0-17.593 7.877-17.593 17.593v10.299l64.193 5.789z" fill="#ffe07d"/><path d="m142.402 76.595c-2.097 2.896-3.333 6.456-3.333 10.305v10.298l61.999 11.607-11.365-32.211h-47.301z" fill="#ffd064"/><path d="m189.703 57.134v40.064h27.117v-36.774c0-1.397 1.133-2.53 2.53-2.53h73.3c1.397 0 2.53 1.133 2.53 2.53v36.774h27.117v-40.064c0-14.556-11.8-26.357-26.357-26.357h-79.88c-14.556 0-26.357 11.8-26.357 26.357z" fill="#407093"/><path d="m189.703 76.595h27.117v28.429h-27.117z" fill="#365e7d"/><path d="m295.18 76.595h27.117v28.429h-27.117z" fill="#365e7d"/><path d="m448.279 481.223h-37.436c-1.972 0-3.625-1.493-3.824-3.455l-2.489-24.437 25.031-23.836 25.031 23.836-2.489 24.437c-.2 1.962-1.852 3.455-3.824 3.455z" fill="#407093"/><path d="m101.157 481.223h-37.436c-1.972 0-3.625-1.493-3.825-3.455l-2.489-24.437 25.031-15.547 25.031 15.547-2.489 24.437c-.198 1.962-1.85 3.455-3.823 3.455z" fill="#407093"/><path d="m448.871 97.198h-385.742l-63.129 63.13v229.874l63.129 63.129h385.742l63.129-63.129v-229.874z" fill="#e7a52e"/><path d="m470.793 145.025v148.118c0 77.091-62.494 139.585-139.585 139.585h-286.08l18.001 20.604h385.742l63.129-63.13v-229.874z" fill="#e27d47"/><path d="m512 160.328v-37.248c0-14.294-11.587-25.881-25.881-25.881h-37.248c0 34.865 28.264 63.129 63.129 63.129z" fill="#ffe07d"/><path d="m63.129 97.198h-37.248c-14.294 0-25.881 11.588-25.881 25.882v37.248c34.865 0 63.129-28.264 63.129-63.13z" fill="#ffe07d"/><path d="m448.871 453.331h37.248c14.294 0 25.881-11.587 25.881-25.881v-37.248c-34.865 0-63.129 28.264-63.129 63.129z" fill="#ffd064"/><path d="m0 390.202v37.248c0 14.294 11.587 25.881 25.881 25.881h37.248c0-34.865-28.264-63.129-63.129-63.129z" fill="#ffe07d"/><path d="m63.129 97.198h38.619v356.133h-38.619z" fill="#407093"/><path d="m410.251 97.198h38.619v356.133h-38.619z" transform="matrix(-1 0 0 -1 859.122 550.529)" fill="#407093"/><path d="m.539 432.727c2.437 11.763 12.857 20.604 25.342 20.604h37.248c0-7.215-1.21-14.146-3.439-20.604z" fill="#ffd064"/><path d="m63.13 432.727h38.619v20.603h-38.619z" fill="#365e7d"/><path d="m410.251 408.206v45.125h38.619v-85.061c-10.079 15.753-23.234 29.347-38.619 39.936z" fill="#365e7d"/><path d="m486.119 97.198h-15.326v47.826c11.058 9.536 25.459 15.303 41.207 15.303v-37.247c0-14.294-11.588-25.882-25.881-25.882z" fill="#ffd064"/><path d="m237.883 199.531-69.967 40.396c-2.457 1.419-5.525-.375-5.493-3.213l.892-79.246c.031-2.782 3.032-4.515 5.457-3.151l69.075 38.85c2.473 1.391 2.493 4.945.036 6.364z" fill="#95d6a4"/><path d="m365.528 236.555-74.442 74.442c-1.377 1.377-3.61 1.377-4.988 0l-15.761-15.761c-1.377-1.377-1.377-3.61 0-4.988l74.442-74.442c1.377-1.377 3.61-1.377 4.988 0l15.761 15.761c1.377 1.378 1.377 3.611 0 4.988z" fill="#f1f4f6"/><path d="m299.568 302.516c16.011 7.516 35.684 4.661 48.912-8.567s16.083-32.901 8.567-48.912z" fill="#5766cb"/><path d="m336.298 224.288c-16.011-7.516-35.684-4.661-48.912 8.567s-16.083 32.901-8.567 48.912z" fill="#5766cb"/><path d="m238.888 341.645-30.002 51.965c-1.699 2.943-5.462 3.951-8.405 2.252l-51.965-30.002c-2.943-1.699-3.951-5.462-2.252-8.405l30.002-51.965c1.699-2.943 5.462-3.951 8.405-2.252l51.965 30.002c2.943 1.699 3.951 5.462 2.252 8.405z" fill="#dd636e"/></g><g transform="matrix(0.29360035141299207 0.028230801960996043 -0.028230801960996043 0.29360035141299207 112.96311876389642 178.71293816521091)" id="L1_214"><ellipse cx="283px" cy="296px" rx="215px" ry="215px" fill="#6dafdf"/><g><path d="M173.471,165.849l-0.384-0.896c3.632-0.304,4.032-2.816,6.816-3.568   c3.168-0.816,2.032,0.224,5.104,0.32c2.48,0.064,3.872,1.952,6.784,0.832c-0.752,1.168-1.936,1.92-3.104,2.688   c-2.448,1.504-4.928,3.056-7.744,3.504C178.143,169.177,174.927,168.281,173.471,165.849z" fill="#e8eff3"/><path d="M204.031,360.201c-0.176,1.888-1.392,3.472-2.464,5.008c-4.784,6.768-7.936,14.768-9.04,22.992   c-1.088,7.888-1.376,17.68-8.528,21.12c-4.08,1.936-9.6,1.184-12.464,4.72c-0.896,1.072-1.376,2.448-1.856,3.744   c-2.096,6.064-4.192,12.128-6.304,18.192c-2.176-0.336-4.4-0.72-6.56-1.104c2.528,0.992,4.096,4.608,2.384,6.896   c-2.4-1.472-5.76-0.128-7.28,2.272c-1.472,2.4-1.472,5.424-0.912,8.192c1.712,8.208,8.208,15.168,16.192,17.632   c-1.584,2.576-5.84,1.136-8.336-0.832c-18-13.952-30.944-34.256-36-56.448c-1.792-7.824-2.72-16.096-6.768-22.992   c-3.392-5.824-8.768-10.272-12.144-16.112c-4.736-8.304-5.04-18.784-10.64-26.512c-3.136-4.4-8.048-9.888-4.752-14.16   c1.328-1.776,4.032-3.36,3.136-5.36c-0.304-0.656-0.96-1.088-1.456-1.664c-1.904-2.32-0.272-5.68,0.928-8.432   c2.016-4.8,2.352-10.048,1.968-15.344c-4.816-4.896-8.48-10.848-10.592-17.376c-1.264-3.984-2.944-8.976-7.12-9.296   c-0.88-3.088-1.808-6.16-2.672-9.248c-0.464,1.04-1.568,1.664-2.752,1.728c6.432-49.04,29.184-92.432,62.32-125.056   c0.672-0.256,1.376-0.608,2.08-0.96c7.616-3.808,13.856-9.856,21.264-14.064c1.52-0.88,3.232-1.696,5.024-1.392   c1.744,0.256,3.28,2.16,2.544,3.776c-0.288,0.672-0.896,1.168-1.52,1.568c-8.768,6.528-18.256,12.112-28.256,16.592   c-1.2,0.512-2.464,1.104-3.072,2.24c-1.104,1.936,0.384,4.528,2.432,5.392s4.4,0.576,6.576,0.224   c-1.968,2.464-2.72,5.872-1.984,8.96c1.984,0.32,2.784-2.368,3.488-4.224c2.912-7.376,15.12-9.664,14.848-17.648   c3.152,1.92,6.704-1.664,8.896-4.656c2.192-3.024,6.816-5.856,9.072-2.928c0.048,1.568,0.144,3.136,0.192,4.704   c4.352-0.8,8.752-1.632,13.088-2.432c-2.544,1.552-3.6,5.136-2.368,7.856c1.232,2.72,4.656,4.256,7.488,3.36   c-0.192,2.288-2.352,3.904-4.288,5.136c-4.944,3.248-10.24,6.576-15.84,7.968l1.088,2.704c-0.144,0.032-0.304,0.08-0.448,0.064   c-3.52,0.112-7.056-2.656-10.832-2.4c-2.304,0.144-5.12-0.032-6.592,2.208c-0.208,0.272-1.296,4.304-0.704,4   c2.112-1.04,4.24-2.064,6.304-3.104c0.528,1.696,0.56,3.552,0.096,5.328c2.496-0.08,5.04,0.624,7.136,2.064   c-2.624,5.152-8.736,8.32-14.496,7.52c0.064-1.76,0.08-3.504,0.144-5.264c-4.736-0.688-8.896,3.136-11.536,7.072   c-2.688,3.968-4.848,8.576-9.008,10.944c-2.544,1.504-5.552,1.936-8.256,3.136c-2.672,1.248-5.216,3.76-4.88,6.672   c0.16,1.376,0.944,2.704,0.816,4.112c-0.32,2.608-3.456,3.632-5.616,5.2c-3.696,2.688-4.912,7.984-8.816,10.32   c-2.848,1.728-6.432,1.44-9.664,2.208c-3.216,0.768-6.592,3.728-5.52,6.864c-1.584,0.432-3.408-0.848-3.456-2.512   c-6.304,10.624-10.768,22.352-13.056,34.496c2.64,2.128,5.744-2.112,6.496-5.44c0.8-3.312,4-7.504,6.592-5.344   c-0.944,4.768-1.888,9.504-2.816,14.272c-0.208,0.912-0.368,1.888,0.016,2.736c0.464,1.056,1.6,1.568,2.432,2.352   c2.336,2.304,1.76,6.064,1.696,9.328c-0.112,4,0.96,7.968,2.816,11.504c-0.144-0.688-0.256-1.392-0.352-2.08   c3.76,0.736,7.776-0.224,10.8-2.576c1.6-1.264,2.976-2.928,4.912-3.488c1.984-0.608,4.096,0.064,6.048,0.736   c6.064,2.096,12.512,4.416,16.32,9.552c1.936,2.608,3.04,5.808,5.392,8.016c5.328,5.12,14.992,3.648,19.808,9.28   c3.856,4.544,2.64,11.392,1.136,17.216c-2.72-1.728-6.768,1.904-5.28,4.784c1.616-1.552,3.472-3.2,5.664-3.056   c2.24,0.096,3.984,3.28,2.24,4.592c4.208-4.704,13.6-2.048,14.72,4.224c5.424,0.736,10.896,1.488,16.304,2.272   C188.191,350.633,204.879,352.201,204.031,360.201z" fill="#e8eff3"/><path d="M185.487,133.145c-2.176,0.896-4.976-0.464-5.616-2.72s1.024-4.896,3.344-5.264   c1.472-0.24,3.456,0.048,3.984-1.344c0.16-0.416,0.112-0.896,0.144-1.344c0.112-2.656,2.64-4.704,5.264-5.2   c2.624-0.496,5.296,0.192,7.872,0.88c0.8,1.968,0.928,4.224,0.352,6.272c-1.792-0.032-3.584-0.08-5.392-0.112   c-0.032,2.976-0.56,6.704-3.392,7.616c-2.528,0.816-5.632-1.216-7.808,0.32" fill="#e8eff3"/><path d="M215.279,105.257c5.04-2.016,9.408-5.44,14.384-7.6c8.56-3.712,18.256-3.472,27.584-3.152   c21.232,0.72,42.464,1.424,63.696,2.144c-5.088,2.368-10.176,4.752-15.264,7.12c-4.16,1.936-8.864,3.92-13.184,2.384   c-0.336,3.536,2.688,7.024,6.224,7.216c-9.056,4.816-20.784-1.472-30.256,2.448c-3.968,1.648-7.312,5.024-11.584,5.424   c-2.48,0.224-4.976-0.592-7.44-0.208c-4.128,0.624-6.944,4.32-10.144,7.008c-3.696,3.104-8.928,5.04-13.36,3.152   s-6.368-8.784-2.512-11.696c1.888-1.44,4.464-1.52,6.64-2.464s4.032-3.728,2.56-5.6c-0.64-0.816-1.744-1.184-2.336-2.032   c-0.624-0.928-0.48-2.192-0.976-3.2c-1.904-3.92-8.224,0.784-12.192-1.008" fill="#e8eff3"/><path d="M278.463,127.321c2.912-0.48,5.504-2.016,8.256-3.072s5.984-1.584,8.528-0.112   c0.656,2-1.712,3.632-3.728,4.208c-3.872,1.088-8.032,1.184-11.952,0.272" fill="#e8eff3"/><path d="M450.303,159.929c-0.784,0.048-1.616-0.048-2.416-0.304c-3.6-1.008-6.192-4.016-9.168-6.256   c-6.896-5.232-16.672-6.496-24.704-3.104c2.016-2.56,3.152-5.808,3.168-9.072l-1.136,0.32   c-12.256-8.208-26.688-16.848-40.912-12.784c-3.28,0.96-6.32,2.528-9.648,3.44c-3.536,0.992-7.408,1.232-10.512,3.184   c-3.152,1.952-5.056,6.56-2.656,9.296c2.048,2.336,5.584,1.968,8.624,2.464c2.992,0.48,6.256,3.728,4.432,6.192   c-13.728,5.36-27.488,10.784-41.216,16.192c6,2.384,9.584,9.6,7.872,15.84c-4.528,0.496-8.672-2.512-13.168-3.088   c-6.544-0.768-13.184,4.624-13.76,11.168c-0.624,6.56,5.024,13.024,11.584,13.344c4.912,0.272,9.92-2.384,14.608-0.816   c0.48-4.464,3.792-8.048,7.152-11.056c6.512-5.728,15.632-10.72,23.6-7.168c2.608,1.136,4.784,3.088,6.896,5.024   c4.656,4.208,9.312,8.464,13.968,12.72c1.664-1.504,3.312-3.008,4.976-4.464c2.496,2.992,4.992,5.984,7.52,9.024   c1.424-0.832,2.896-1.616,4.304-2.464c0.816,2.592,1.664,5.136,2.48,7.728c0.576-2.752,1.088-5.44,1.6-8.144   c3.2,0.304,6.592,0.624,9.616-0.656c3.008-1.216,5.376-4.592,4.352-7.68c-0.528-1.648-1.952-3.008-2.144-4.72   c-0.416-3.44,4.592-5.472,7.664-3.696c3.008,1.712,4.336,5.36,5.44,8.704c0.944-3.264,1.84-6.48,2.768-9.728   c2.544,8.176,6.448,15.936,11.472,22.848c-9.84-2.544-20.416-2.144-30,1.104c2.704,4.368,7.648,7.184,12.752,7.312   c2.288,0.096,4.848-0.272,6.512,1.296c1.248,1.2,1.472,3.024,1.6,4.688c0.48,4.72,0.96,9.392,1.392,14.048   c-4.976-4.672-12.592-4.672-19.44-5.248c-6.848-0.64-14.736-3.04-16.864-9.584c-2.928,2.896-4.416,7.184-3.904,11.312   c-6.992-2.16-14.976-5.408-16.576-12.544c-5.68,1.68-12.352-2.304-13.488-8.096c-0.4-2.032-0.4-4.464-2.08-5.648   c-1.024-0.704-2.4-0.688-3.664-0.624c-10.624,0.544-21.2,1.024-31.776,1.568c-5.776,0.32-11.76,0.608-16.992,3.104   c-5.232,2.448-9.616,7.632-9.408,13.408c-10.048,5.12-18.8,12.896-24.96,22.32c-1.952,2.896-3.68,6.256-3.216,9.696   c0.32,2.656,1.92,5.008,2.288,7.616c0.64,4.48-2.16,8.592-3.52,12.912c-3.808,12.256,4.864,24.576,13.008,34.576   c3.856,4.64,8.304,9.712,14.32,10.336c3.728,0.384,7.392-1.04,10.976-2.176c10.272-3.296,21.28-4.384,31.984-3.264   c-2.56,1.744-0.288,6.032,2.688,6.864c2.976,0.832,6.288,0.064,9.152,1.264c6.512,2.816,4.96,12.528,1.536,18.704   c1.52-0.192,3.104-0.384,4.672-0.576c-0.96,2.08-1.92,4.176-2.896,6.208c9.056,1.76,11.744,13.984,9.024,22.832   c-2.672,8.864-8.544,16.784-9.28,26c-0.368,5.056,0.864,10.064,2.112,14.976c3.104,12.448,6.208,24.912,9.312,37.408   c10.8,2.016,17.968-11.44,28.352-15.12c3.904-1.408,8.384-1.456,11.536-4.096c3.04-2.544,2.528-8.96-1.168-9.2   c5.04-0.208,9.616-4.512,10.08-9.552c0.144-1.408,0.032-2.832,0.32-4.224c0.464-1.968,1.84-3.648,3.168-5.264   c8.448-10.592,14.272-22.96,20.08-35.168c1.536-3.264,3.056-6.496,4.576-9.76c5.76-12.176,11.472-24.304,17.232-36.48   c2.256-4.784,4.512-9.52,6.784-14.304c-2.96,4.256-9.92,3.216-13.696-0.336c-3.824-3.568-5.584-8.704-8.48-13.04   c-2.448-3.728-5.84-7.104-6.832-11.52c-0.576-2.528-0.256-5.184-0.528-7.792c-0.608-5.648-4-10.56-6.208-15.776   s-3.088-11.872,0.736-16.064c9.056,18.496,17.168,37.472,24.368,56.832c1.104-2.864,3.408-5.248,6.224-6.48   c2.064-0.944,4.32-1.232,6.48-1.984c5.696-2.08,9.92-7.712,10.304-13.744c0.336-6.032-3.12-12.16-8.56-14.896   c-2.688-1.344-5.824-1.936-8.352-3.712c-2.528-1.728-4.192-5.392-2.368-7.872c1.712-2.336,5.456-2.048,7.936-0.512   c2.48,1.584,4.224,4.08,6.56,5.84c1.68,1.28,3.664,2.192,5.488,3.376c9.888,6.544,11.552,20.08,12.944,31.888   c0.768,6.352,1.68,12.656,2.832,18.88c0.128-1.312,0.224-2.672,0.304-3.984C502.031,253.369,483.519,200.585,450.303,159.929z    M465.391,231.833c-1.408-0.192-2.656-1.2-3.712-2.144c-1.76-1.584-3.488-3.392-3.872-5.712c-0.464-2.768,1.056-5.792-0.24-8.32   c-0.608-1.216-1.776-2.016-2.736-2.912c-2.544-2.304-4.288-5.504-4.8-8.848c-0.448-2.96,0.736-6.784,3.728-7.088   c1.424-0.16,2.928,0.72,3.472,2.08l-2.064,0.944c3.328,0.608,4.56,5.76,1.84,7.776c-0.368,0.32-0.816,0.576-0.848,1.072   c-0.016,0.288,0.16,0.592,0.384,0.8c1.952,2.416,5.008,3.44,7.632,5.088c2.64,1.584,5.136,4.384,4.512,7.36   c-0.896,0.288-1.744,0.528-2.64,0.8c-0.992,0.864-0.368,2.56,0.56,3.552c0.912,0.992,2.112,1.984,2.08,3.36   C468.575,231.113,466.847,232.025,465.391,231.833z" fill="#e8eff3"/><path d="M457.103,381.481l-3.664,2.256c0.944,4.384-1.84,9.264-6.096,10.672   c-2.256,0.752-5.2,0.944-6.08,3.152c-0.752,1.872,0.624,3.904,0.688,5.92c0.112,3.328-3.152,5.6-5.536,7.92   s-3.872,6.864-0.992,8.544c0.672,0.384,1.456,0.512,2.224,0.64c3.216,0.496,6.736,0.816,9.504-0.896   c7.904-4.912,1.68-20,9.504-25.056c1.104-0.72,2.48-1.2,3.152-2.336C461.727,388.905,455.455,385.033,457.103,381.481z" fill="#e8eff3"/></g><path d="M222.143,129.401c-2.144,1.552-4.336,3.024-6.64,4.352c-1.856,1.072-3.056,1.68-3.888,2.032  c-4.144,4.096-8.416,8.016-12.416,12.272c-4.064,4.336-7.856,8.88-11.744,13.36c-0.064,0.112-0.032,0.096-0.112,0.224  c-11.424,20.096-23.568,40.016-38.128,58.032c190.768,102.864,257.712,210.176,196.528,282.48c0.128-0.048,0.272-0.112,0.4-0.16  c47.648-19.872,80.256-67.28,76.448-118.784C417.007,307.609,351.999,218.233,222.143,129.401z" fill="#ffd93b"/><path d="M223.599,32.585l-31.024,5.408l-10.928-10.928c-3.344-3.344-8.784-3.344-12.144,0  c-3.344,3.344-3.344,8.784,0,12.128l2.4,2.4l-13.776,2.4l-9.04-9.04c-3.344-3.36-8.784-3.36-12.144,0  c-3.344,3.344-3.344,8.784,0,12.128l0.496,0.512l-35.968,6.256l-27.04-27.04c-8.736-8.736-18.832-16.032-30.048-21.184  c-8.384-3.84-17.776-6.704-25.36-5.232c-3.04,0.592-5.44,2.992-6.032,6.032c-1.648,8.496,2.144,19.264,6.672,28.352  c4.928,9.888,11.536,18.832,19.344,26.656l27.456,27.456l-6.272,35.968l-0.512-0.496c-3.36-3.344-8.784-3.344-12.144,0  s-3.36,8.784,0,12.128l9.04,9.04l-2.4,13.776l-2.4-2.384c-3.344-3.36-8.784-3.36-12.144,0c-3.344,3.344-3.344,8.784,0,12.128  l10.928,10.928l-5.408,31.024c-0.576,3.328,0.496,6.736,2.88,9.12c4.832,4.832,12.928,3.76,16.336-2.144l13.888-24.08  c8.16,7.12,17.248,9.872,17.248,9.872s-3.2-10.736-11.776-19.344l9.296-16.096c8.416,7.856,18.336,10.848,18.336,10.848  s-3.2-10.784-11.824-19.408c-0.32-0.352-0.672-0.624-1.008-0.944l13.856-24.016l34.864,34.864l-9.664,43.312  c-1.536,7.616,2.864,15.232,10.24,17.68c7.392,2.448,15.488-1.056,18.864-8.224l12.976-31.6c8.448,1.392,16.912,1.264,20.896,0.128  c4.192,2.592,7.008,4,7.008,4s-1.408-2.816-4-7.008c1.136-3.968,1.264-12.432-0.128-20.896l31.792-13.056  c1.616-0.752,3.056-1.776,4.304-3.024c4.144-4.16,5.584-10.192,3.744-15.744c-2.448-7.392-10.064-11.792-17.68-10.24l-43.312,9.664  l-34.88-34.88l24.016-13.856c0.32,0.336,0.592,0.688,0.928,1.024c8.624,8.624,19.408,11.824,19.408,11.824  s-3.008-9.904-10.864-18.336l16.096-9.296c8.624,8.576,19.36,11.776,19.36,11.776s-2.752-9.072-9.872-17.248l24.08-13.888  c5.92-3.408,6.976-11.504,2.16-16.336C230.335,33.081,226.927,31.993,223.599,32.585z" fill="#5a5f63"/><path d="M390.383,445.177c-1.424,10-1.312,9.888-7.84,29.44c3.744-14.016,5.36-17.248,6.24-29.6  c7.696-53.872-29.008-121.744-63.04-158.72c-17.04-20.608-40.096-43.376-62.24-61.6c-19.072-15.92-27.68-21.536-43.68-32.96  c-3.68-2.4-4.64-7.52-2.08-11.04c2.56-3.68,7.52-4.64,11.2-2.08c0,0.16,0.16,0.16,0.32,0.32  c15.696,12.208,22.496,16.848,43.04,35.52c23.376,21.264,44.736,44.672,60.96,65.92  C368.463,323.753,398.799,386.105,390.383,445.177z" fill="#e9b02c"/></g><g transform="matrix(0.17895972728729248 0 0 0.17895972728729248 -38.813690185546875 226.18630981445312)" id="L1_215"><path d="m313.894 315.414-108.307.998v104.493h108.307z" fill="#fbbd80"/><path d="m197.955 387.779h16.563v-43.679c0-10.499 9.589-18.07 19.923-16.213 6.973 1.253 14.146 1.922 21.484 1.922 20.949 0 40.657-5.237 57.97-14.395v-43.574h-115.94z" fill="#f4aa73"/><path d="m416.634 384.4-141.224-1.979-11.204 12.604-2.092 9.975h-12.379l-2.092-9.974-11.204-12.604-65.306-15.532-66.866 20.545c-24.334 7.477-40.943 29.955-40.943 55.412v48.263l10.41 19.476c2.59.916 5.378 1.414 8.282 1.414h41.407l8.21-6.629 8.353 6.629h42.066l53.509-17.055 61.112 17.055h75.191l8.673-5.326 7.89 5.326h27.732l38.67-65.529v-7.578c0-24.487-15.367-46.218-38.195-54.493z" fill="#b8eb7c"/><path d="m195.508 336.374c-3.166-3.561-8.677-3.724-12.046-.354l-21.954 21.955c-1.821 1.821-2.513 4.303-2.257 6.721l-25.229 7.752-52.399 28.507-24.183 32.343c-.178 1.845-.269 3.712-.269 5.595v48.263c0 10.802 6.935 20.005 16.563 23.427v-71.692c0-18.298 11.751-34.201 29.252-39.579l65.229-20.043 18.376 25.726c5.949 8.328 17.952 9.322 25.19 2.085l24.658-24.658z" fill="#98db7c"/><path d="m371.864 412.623c19.686 0 36.727-11.621 44.77-28.223-.906-.329-1.82-.635-2.749-.92l-66.866-20.545h-24.844c.001 27.442 22.247 49.688 49.689 49.688z" fill="#ffaa5a"/><path d="m262.114 397.378c-3.295 3.707-9.085 3.707-12.38 0l-2.092-2.353v83.956h16.563v-83.956z" fill="#98db7c"/><path d="m393.218 119.134-4.641-4.641 6.098-18.296c5.148-15.444-6.347-31.392-22.626-31.392h-8.316l3.48-8.699c6.266-15.667-5.271-32.708-22.145-32.708h-14.461l-16.411-16.412c-5.308-5.308-12.806-7.807-20.237-6.746l-46.164 6.595-22.113-5.528c-6.968-1.742-14.349-.251-20.095 4.058l-24.044 18.033 57.057 165.628h141.545l18.32-42.488c4.03-9.347 1.951-20.207-5.247-27.404z" fill="#d48c64"/><path d="m140.136 47.248v17.557h-.035c-16.279 0-27.775 15.949-22.627 31.393l6.099 18.295-4.697 4.697c-7.169 7.169-9.263 17.976-5.289 27.303l18.117 42.532h103.413v-83.355c0-11.625-4.076-22.882-11.518-31.812l-42.055-50.461h-17.557c-13.173.001-23.851 10.679-23.851 23.851z" fill="#c6805d"/><path d="m396.6 191.031c-1.079-10.776-10.948-18.568-21.778-18.568h-11.24c-9.147 0-16.563-7.416-16.563-16.563v-3.778c0-8.023-3.875-15.553-10.404-20.216l-30.197-21.569c-3.661-2.615-8.74-1.829-11.439 1.77l-5.234 6.979c-5.099 6.798-14.515 8.635-21.795 4.251l-21.691-13.062c-3.78-2.276-8.68-1.189-11.143 2.472l-4.19 6.229c-4.648 6.909-13.702 9.293-21.15 5.569l-20.103-10.052-14.494 16.001 2.172 82.968c0 24.326 21.91 98.552 78.573 98.552 7.204 0 14.24.525 21.044-.825 46.719-9.269 82.493-48.809 86.196-97.319h12.841c12.139 0 21.837-10.447 20.595-22.839z" fill="#ffd18d"/><path d="m189.673 205.588v-91.096l-2.787-1.394c-4.93-2.465-10.883-1.499-14.781 2.399-4.659 4.659-7.277 10.978-7.277 17.567v22.836c0 9.147-7.416 16.563-16.563 16.563h-11.24c-10.829 0-20.698 7.792-21.778 18.567-1.241 12.393 8.457 22.84 20.596 22.84h12.841c4.242 55.575 50.577 99.377 107.24 99.377 7.123 0 14.31-.737 21.044-2.058-49.599-9.615-87.295-53.191-87.295-105.601z" fill="#fbbd80"/><path d="m256.159 263.558c-12.422 0-23.89-3.987-30.659-10.667-3.259-3.211-3.292-8.455-.081-11.71 3.211-3.259 8.467-3.292 11.71-.081 2.758 2.721 9.397 5.896 19.029 5.896s16.272-3.174 19.029-5.896c3.243-3.211 8.5-3.178 11.71.081 3.211 3.255 3.178 8.5-.081 11.71-6.767 6.68-18.235 10.667-30.657 10.667z" fill="#e29a6c"/><path d="m181.392 180.744h-33.126c-4.577 0-8.281-3.708-8.281-8.281s3.704-8.281 8.281-8.281h33.126c4.577 0 8.281 3.708 8.281 8.281s-3.704 8.281-8.281 8.281z" fill="#4e3d4d"/><path d="m363.583 180.744h-33.126c-4.577 0-8.281-3.708-8.281-8.281s3.704-8.281 8.281-8.281h33.126c4.577 0 8.281 3.708 8.281 8.281s-3.704 8.281-8.281 8.281z" fill="#4e3d4d"/><path d="m272.431 197.348c-2.693 0-5.33-1.31-6.923-3.728-3.647-5.536-15.002-5.726-18.965-.291-2.685 3.692-7.877 4.513-11.573 1.824-3.696-2.693-4.513-7.873-1.82-11.569 5.071-6.963 13.579-11.12 22.774-11.12 9.551 0 18.52 4.618 23.413 12.05 2.515 3.817 1.464 8.953-2.361 11.468-1.399.925-2.985 1.366-4.545 1.366z" fill="#4e3d4d"/><circle cx="338" cy="462" r="16" fill="#ff5f7a"/><path d="m214.517 222.151h-8.281c-18.269 0-33.126-14.86-33.126-33.126v-16.563c0-4.573 3.704-8.281 8.281-8.281h57.97c4.577 0 8.281 3.708 8.281 8.281v16.563c.001 18.266-14.855 33.126-33.125 33.126z" fill="#615260"/><path d="m189.673 180.744v8.281c0 9.135 7.432 16.563 16.563 16.563h8.281c9.131 0 16.563-7.428 16.563-16.563v-8.281z" fill="#4e3d4d"/><path d="m305.613 222.151h-8.281c-18.269 0-33.126-14.86-33.126-33.126v-16.563c0-4.573 3.704-8.281 8.281-8.281h57.97c4.577 0 8.281 3.708 8.281 8.281v16.563c0 18.266-14.856 33.126-33.125 33.126z" fill="#615260"/><path d="m280.769 180.744v8.281c0 9.135 7.432 16.563 16.563 16.563h8.281c9.131 0 16.563-7.428 16.563-16.563v-8.281z" fill="#4e3d4d"/><g fill="#98db7c"><path d="m328.386 336.019 21.954 21.955c2.863 2.863 3.236 7.375.883 10.669l-25.965 36.351c-5.949 8.328-17.952 9.322-25.189 2.085l-24.659-24.659 40.931-46.047c3.165-3.561 8.676-3.723 12.045-.354z"/><path d="m139.985 512h-16.563v-41.407c0-4.574 3.708-8.281 8.281-8.281 4.574 0 8.281 3.708 8.281 8.281v41.407z"/><path d="m388.427 512h-16.563v-41.407c0-4.574 3.708-8.281 8.281-8.281 4.574 0 8.281 3.708 8.281 8.281v41.407z"/></g><path d="m139.356 388.136-55.94 8.42-15.964 31.765 6.286 14.581c5.176 1.842 10.748 2.847 16.56 2.847 27.442 0 49.688-22.246 49.688-49.688-.001-2.698-.216-5.345-.63-7.925z" fill="#ff5f7a"/><path d="m264.207 467.903-16.562-5.003c-2.705-.388-5.47-.588-8.283-.588-29.196 0-53.283 21.606-57.311 49.688h65.593l8.442-3.86 8.121 3.86h32.467c-2.802-19.525-15.299-35.919-32.467-44.097z" fill="#ffaa5a"/><path d="m413.271 495.437c0 5.817 1.051 11.375 2.888 16.563h13.826c13.721 0 24.844-11.123 24.844-24.844v-40.685c-23.565 3.888-41.558 24.299-41.558 48.966z" fill="#ff5f7a"/><path d="m139.356 388.136c-.898-5.596-2.732-10.882-5.334-15.689l-35.908 11.033c-22.562 6.932-38.475 26.676-40.674 49.818 4.675 4.092 10.328 7.475 16.294 9.604v-4.011c0-18.298 11.751-34.201 29.252-39.579z" fill="#fb4455"/><path d="m247.643 462.9v49.1h16.563v-44.097c-5.144-2.452-10.715-4.164-16.563-5.003z" fill="#ff8b57"/></g></defs><g fi:class="KUsePattern"><pattern id="pattern_L1_212" width="350" height="350" patternUnits="userSpaceOnUse"><use xlink:href="#L1_212" x="-350" y="-350"/><use xlink:href="#L1_212" x="0" y="-350"/><use xlink:href="#L1_212" x="350" y="-350"/><use xlink:href="#L1_212" x="-350" y="0"/><use xlink:href="#L1_212" x="0" y="0"/><use xlink:href="#L1_212" x="350" y="0"/><use xlink:href="#L1_212" x="-350" y="350"/><use xlink:href="#L1_212" x="0" y="350"/><use xlink:href="#L1_212" x="350" y="350"/></pattern><rect x="0" y="0" width="100%" height="100%" fill="url(#pattern_L1_212)"/></g><g fi:class="KUsePattern"><pattern id="pattern_L1_214" width="350" height="350" patternUnits="userSpaceOnUse"><use xlink:href="#L1_214" x="-350" y="-350"/><use xlink:href="#L1_214" x="0" y="-350"/><use xlink:href="#L1_214" x="350" y="-350"/><use xlink:href="#L1_214" x="-350" y="0"/><use xlink:href="#L1_214" x="0" y="0"/><use xlink:href="#L1_214" x="350" y="0"/><use xlink:href="#L1_214" x="-350" y="350"/><use xlink:href="#L1_214" x="0" y="350"/><use xlink:href="#L1_214" x="350" y="350"/></pattern><rect x="0" y="0" width="100%" height="100%" fill="url(#pattern_L1_214)"/></g><g fi:class="KUsePattern"><pattern id="pattern_L1_215" width="350" height="350" patternUnits="userSpaceOnUse"><use xlink:href="#L1_215" x="-350" y="-350"/><use xlink:href="#L1_215" x="0" y="-350"/><use xlink:href="#L1_215" x="350" y="-350"/><use xlink:href="#L1_215" x="-350" y="0"/><use xlink:href="#L1_215" x="0" y="0"/><use xlink:href="#L1_215" x="350" y="0"/><use xlink:href="#L1_215" x="-350" y="350"/><use xlink:href="#L1_215" x="0" y="350"/><use xlink:href="#L1_215" x="350" y="350"/></pattern><rect x="0" y="0" width="100%" height="100%" fill="url(#pattern_L1_215)"/></g></svg>