<svg xmlns="http://www.w3.org/2000/svg" version="1.1" xmlns:xlink="http://www.w3.org/1999/xlink" xmlns:svgjs="http://svgjs.dev/svgjs" width="1000" height="101" viewBox="0 0 1000 101"><g transform="matrix(1,0,0,1,-0.6060606060606233,-0.092262955402866)"><svg viewBox="0 0 396 40" data-background-color="#ffffff" preserveAspectRatio="xMidYMid meet" height="101" width="1000" xmlns="http://www.w3.org/2000/svg" xmlns:xlink="http://www.w3.org/1999/xlink"><defs></defs><g id="tight-bounds" transform="matrix(1,0,0,1,0.2400000000000091,0.03653978431796645)"><svg viewBox="0 0 395.52 39.92692043136407" height="39.92692043136407" width="395.52"><g><svg viewBox="0 0 448.5330356947468 45.27847599874175" height="39.92692043136407" width="395.52"><g transform="matrix(1,0,0,1,0,6.257734381881097)"><svg viewBox="0 0 395.52 32.763007234979554" height="32.763007234979554" width="395.52"><g><svg viewBox="0 0 395.52 32.763007234979554" height="32.763007234979554" width="395.52"><g><svg viewBox="0 0 395.52 32.763007234979554" height="32.763007234979554" width="395.52"><g transform="matrix(1,0,0,1,0,0)"><svg width="395.52" viewBox="1.75 -39 476.82 39.5" height="32.763007234979554" data-palette-color="#0465b3"><path d="M22.6 0L1.75 0 1.75-2Q3.4-2.05 4.42-2.27 5.45-2.5 6.03-3.13 6.6-3.75 6.8-4.83 7-5.9 7-7.7L7-7.7 7-30.8Q7-32.55 6.85-33.63 6.7-34.7 6.2-35.33 5.7-35.95 4.83-36.18 3.95-36.4 2.55-36.5L2.55-36.5 2.55-38.5 21.55-38.5Q26.35-38.5 30.4-37 34.45-35.5 37.4-32.85 40.35-30.2 42-26.55 43.65-22.9 43.65-18.6L43.65-18.6Q43.65-14.5 42.1-11.08 40.55-7.65 37.77-5.2 35-2.75 31.13-1.38 27.25 0 22.6 0L22.6 0ZM21.45-35.45L15.2-35.45Q14.35-35.45 14.35-34.6L14.35-34.6 14.35-8.75Q14.35-5.85 16.15-4.45 17.95-3.05 21.7-3.05L21.7-3.05Q28.25-3.05 31.78-7 35.3-10.95 35.3-18.5L35.3-18.5Q35.3-22.5 34.35-25.65 33.4-28.8 31.6-30.98 29.8-33.15 27.23-34.3 24.65-35.45 21.45-35.45L21.45-35.45ZM80.1-28.85L80.1-28.85Q80.1-24.7 77.7-21.9 75.3-19.1 70.05-18.15L70.05-18.15 81.65-4.85Q82.85-3.45 84.5-2.73 86.15-2 87.85-2L87.85-2 87.85 0 76 0 63.6-15.2Q62.35-16.7 61.42-17.23 60.5-17.75 59.7-17.75L59.7-17.75 59.7-7.95Q59.7-6.1 59.95-4.93 60.2-3.75 60.95-3.1 61.7-2.45 63.12-2.23 64.55-2 66.95-2L66.95-2 66.95 0 47.1 0 47.1-2Q48.75-2 49.77-2.23 50.8-2.45 51.37-3.08 51.95-3.7 52.15-4.83 52.35-5.95 52.35-7.7L52.35-7.7 52.35-30.8Q52.35-32.55 52.2-33.63 52.05-34.7 51.55-35.33 51.05-35.95 50.12-36.18 49.2-36.4 47.65-36.5L47.65-36.5 47.65-38.5 64.95-38.5Q72.2-38.5 76.15-35.95 80.1-33.4 80.1-28.85ZM59.7-34.85L59.7-20.75 62.95-20.75Q67.65-20.75 69.97-22.58 72.3-24.4 72.3-28.6L72.3-28.6Q72.3-31.8 70.35-33.75 68.4-35.7 64.95-35.7L64.95-35.7 60.6-35.7Q59.7-35.7 59.7-34.85L59.7-34.85ZM100.44-34L100.44-21.3Q103.64-21.3 105.59-21.5 107.55-21.7 108.62-22.33 109.69-22.95 110.14-24.15 110.59-25.35 110.84-27.4L110.84-27.4 112.69-27.4 112.69-12.75 110.84-12.75Q110.55-14.75 110.05-15.95 109.55-17.15 108.44-17.78 107.34-18.4 105.47-18.57 103.59-18.75 100.44-18.75L100.44-18.75 100.44-8.45Q100.44-6.85 100.87-5.75 101.3-4.65 102.3-3.98 103.3-3.3 104.94-3.03 106.59-2.75 109-2.75L109-2.75Q111.84-2.75 113.82-3.15 115.8-3.55 117.09-4.55 118.4-5.55 119.19-7.23 120-8.9 120.55-11.45L120.55-11.45 122.55-11.45 121.75 0 87.84 0 87.84-2Q89.5-2.05 90.55-2.3 91.59-2.55 92.14-3.15 92.69-3.75 92.89-4.85 93.09-5.95 93.09-7.7L93.09-7.7 93.09-30.8Q93.09-32.55 92.92-33.63 92.75-34.7 92.25-35.33 91.75-35.95 90.82-36.18 89.89-36.4 88.39-36.5L88.39-36.5 88.39-38.5 120-38.5 120.34-28.7 118.19-28.7Q117.89-30.8 117.25-32.18 116.59-33.55 115.44-34.38 114.3-35.2 112.47-35.52 110.64-35.85 108-35.85L108-35.85 102.34-35.85Q101.05-35.85 100.75-35.52 100.44-35.2 100.44-34L100.44-34ZM150.49-8.65L149.34-11.65 135.19-11.65Q132.84-6.35 132.84-4.3L132.84-4.3Q132.84-2.8 133.97-2.4 135.09-2 137.34-2L137.34-2 137.34 0 123.64 0 123.64-2Q124.84-2.15 125.72-2.4 126.59-2.65 127.27-3.1 127.94-3.55 128.44-4.28 128.94-5 129.39-6.05L129.39-6.05 142.54-39 146.24-39 158.19-9.8Q159.24-7.25 159.97-5.8 160.69-4.35 161.52-3.58 162.34-2.8 163.42-2.5 164.49-2.2 166.19-2.05L166.19-2.05 166.19 0 147.29 0 147.29-2.05Q149.69-2.15 150.74-2.55 151.79-2.95 151.79-4.15L151.79-4.15Q151.79-4.85 151.44-5.95 151.09-7.05 150.49-8.65L150.49-8.65ZM142.29-29.8L136.34-14.65 148.24-14.65 142.49-29.8 142.29-29.8ZM193.59-9.35L193.79-9.35 205.34-38.5 219.94-38.5 219.94-36.5Q218.29-36.5 217.27-36.18 216.24-35.85 215.69-35 215.14-34.15 214.97-32.68 214.79-31.2 214.79-28.95L214.79-28.95 214.79-9.55Q214.79-7.05 214.99-5.6 215.19-4.15 215.79-3.35 216.39-2.55 217.52-2.3 218.64-2.05 220.49-2L220.49-2 220.49 0 201.69 0 201.69-2Q203.54-2.05 204.67-2.33 205.79-2.6 206.42-3.35 207.04-4.1 207.24-5.48 207.44-6.85 207.44-9.2L207.44-9.2 207.44-32.6 207.19-32.6 193.74 0.5 190.04 0.5 176.14-32.6 175.94-32.6 175.94-9.55Q175.94-7.05 176.14-5.6 176.34-4.15 176.94-3.35 177.54-2.55 178.67-2.3 179.79-2.05 181.64-2L181.64-2 181.64 0 166.24 0 166.24-2Q168.09-2.05 169.24-2.33 170.39-2.6 171.02-3.35 171.64-4.1 171.84-5.48 172.04-6.85 172.04-9.2L172.04-9.2 172.04-29.3Q172.04-31.4 171.84-32.8 171.64-34.2 171.09-35.02 170.54-35.85 169.52-36.18 168.49-36.5 166.79-36.5L166.79-36.5 166.79-38.5 181.94-38.5 193.59-9.35ZM259.49-8.65L258.34-11.65 244.19-11.65Q241.84-6.35 241.84-4.3L241.84-4.3Q241.84-2.8 242.96-2.4 244.09-2 246.34-2L246.34-2 246.34 0 232.64 0 232.64-2Q233.84-2.15 234.71-2.4 235.59-2.65 236.26-3.1 236.94-3.55 237.44-4.28 237.94-5 238.39-6.05L238.39-6.05 251.54-39 255.24-39 267.19-9.8Q268.24-7.25 268.96-5.8 269.69-4.35 270.51-3.58 271.34-2.8 272.41-2.5 273.49-2.2 275.19-2.05L275.19-2.05 275.19 0 256.29 0 256.29-2.05Q258.69-2.15 259.74-2.55 260.79-2.95 260.79-4.15L260.79-4.15Q260.79-4.85 260.44-5.95 260.09-7.05 259.49-8.65L259.49-8.65ZM251.29-29.8L245.34-14.65 257.24-14.65 251.49-29.8 251.29-29.8ZM293.38-2L293.38 0 275.53 0 275.53-2Q277.23-2.05 278.26-2.33 279.28-2.6 279.83-3.35 280.38-4.1 280.58-5.48 280.78-6.85 280.78-9.2L280.78-9.2 280.78-29.3Q280.78-31.4 280.61-32.77 280.43-34.15 279.93-34.95 279.43-35.75 278.51-36.08 277.58-36.4 276.03-36.5L276.03-36.5 276.03-38.5 292.88-38.5 292.88-36.5Q291.33-36.4 290.41-36.08 289.48-35.75 288.98-34.95 288.48-34.15 288.31-32.77 288.13-31.4 288.13-29.3L288.13-29.3 288.13-9.2Q288.13-6.85 288.31-5.48 288.48-4.1 289.06-3.35 289.63-2.6 290.66-2.33 291.68-2.05 293.38-2L293.38-2ZM329.93-28.85L329.93-28.85Q329.93-24.7 327.53-21.9 325.13-19.1 319.88-18.15L319.88-18.15 331.48-4.85Q332.68-3.45 334.33-2.73 335.98-2 337.68-2L337.68-2 337.68 0 325.83 0 313.43-15.2Q312.18-16.7 311.25-17.23 310.33-17.75 309.53-17.75L309.53-17.75 309.53-7.95Q309.53-6.1 309.78-4.93 310.03-3.75 310.78-3.1 311.53-2.45 312.95-2.23 314.38-2 316.78-2L316.78-2 316.78 0 296.93 0 296.93-2Q298.58-2 299.61-2.23 300.63-2.45 301.2-3.08 301.78-3.7 301.98-4.83 302.18-5.95 302.18-7.7L302.18-7.7 302.18-30.8Q302.18-32.55 302.03-33.63 301.88-34.7 301.38-35.33 300.88-35.95 299.95-36.18 299.03-36.4 297.48-36.5L297.48-36.5 297.48-38.5 314.78-38.5Q322.03-38.5 325.98-35.95 329.93-33.4 329.93-28.85ZM309.53-34.85L309.53-20.75 312.78-20.75Q317.48-20.75 319.81-22.58 322.13-24.4 322.13-28.6L322.13-28.6Q322.13-31.8 320.18-33.75 318.23-35.7 314.78-35.7L314.78-35.7 310.43-35.7Q309.53-35.7 309.53-34.85L309.53-34.85ZM372.93-11.35L372.13 0 337.68 0 337.68-2Q339.33-2.05 340.38-2.3 341.43-2.55 341.98-3.15 342.53-3.75 342.73-4.85 342.93-5.95 342.93-7.7L342.93-7.7 342.93-30.8Q342.93-32.55 342.75-33.63 342.58-34.7 342.08-35.33 341.58-35.95 340.65-36.18 339.73-36.4 338.23-36.5L338.23-36.5 338.23-38.5 355.48-38.5 355.48-36.5Q353.78-36.45 352.75-36.2 351.73-35.95 351.18-35.3 350.63-34.65 350.45-33.5 350.28-32.35 350.28-30.45L350.28-30.45 350.28-9.5Q350.28-7.4 350.7-6.08 351.13-4.75 352.18-4.03 353.23-3.3 354.98-3.03 356.73-2.75 359.33-2.75L359.33-2.75Q362.23-2.75 364.18-3.1 366.13-3.45 367.45-4.42 368.78-5.4 369.58-7.05 370.38-8.7 370.93-11.35L370.93-11.35 372.93-11.35ZM393.32-2L393.32 0 375.48 0 375.48-2Q377.18-2.05 378.2-2.33 379.23-2.6 379.78-3.35 380.32-4.1 380.53-5.48 380.73-6.85 380.73-9.2L380.73-9.2 380.73-29.3Q380.73-31.4 380.55-32.77 380.38-34.15 379.88-34.95 379.38-35.75 378.45-36.08 377.53-36.4 375.98-36.5L375.98-36.5 375.98-38.5 392.82-38.5 392.82-36.5Q391.28-36.4 390.35-36.08 389.43-35.75 388.93-34.95 388.43-34.15 388.25-32.77 388.07-31.4 388.07-29.3L388.07-29.3 388.07-9.2Q388.07-6.85 388.25-5.48 388.43-4.1 389-3.35 389.57-2.6 390.6-2.33 391.63-2.05 393.32-2L393.32-2ZM435.32 0.5L428.62 0.5 406.47-31.05 406.27-31.05 406.27-9.55Q406.27-7.05 406.45-5.6 406.62-4.15 407.2-3.35 407.77-2.55 408.8-2.3 409.82-2.05 411.47-2L411.47-2 411.47 0 396.62 0 396.62-2Q398.47-2.05 399.6-2.33 400.72-2.6 401.35-3.35 401.97-4.1 402.17-5.48 402.37-6.85 402.37-9.2L402.37-9.2 402.37-29.3Q402.37-31.4 402.17-32.77 401.97-34.15 401.42-34.95 400.87-35.75 399.85-36.08 398.82-36.4 397.12-36.5L397.12-36.5 397.12-38.5 411.07-38.5 431.22-9.6 431.42-9.6 431.42-28.95Q431.42-31.4 431.25-32.88 431.07-34.35 430.5-35.15 429.92-35.95 428.9-36.2 427.87-36.45 426.22-36.5L426.22-36.5 426.22-38.5 441.07-38.5 441.07-36.5Q439.22-36.45 438.1-36.18 436.97-35.9 436.35-35.15 435.72-34.4 435.52-33 435.32-31.6 435.32-29.3L435.32-29.3 435.32 0.5ZM456.47-34L456.47-21.3Q459.67-21.3 461.62-21.5 463.57-21.7 464.64-22.33 465.72-22.95 466.17-24.15 466.62-25.35 466.87-27.4L466.87-27.4 468.72-27.4 468.72-12.75 466.87-12.75Q466.57-14.75 466.07-15.95 465.57-17.15 464.47-17.78 463.37-18.4 461.5-18.57 459.62-18.75 456.47-18.75L456.47-18.75 456.47-8.45Q456.47-6.85 456.89-5.75 457.32-4.65 458.32-3.98 459.32-3.3 460.97-3.03 462.62-2.75 465.02-2.75L465.02-2.75Q467.87-2.75 469.85-3.15 471.82-3.55 473.12-4.55 474.42-5.55 475.22-7.23 476.02-8.9 476.57-11.45L476.57-11.45 478.57-11.45 477.77 0 443.87 0 443.87-2Q445.52-2.05 446.57-2.3 447.62-2.55 448.17-3.15 448.72-3.75 448.92-4.85 449.12-5.95 449.12-7.7L449.12-7.7 449.12-30.8Q449.12-32.55 448.94-33.63 448.77-34.7 448.27-35.33 447.77-35.95 446.85-36.18 445.92-36.4 444.42-36.5L444.42-36.5 444.42-38.5 476.02-38.5 476.37-28.7 474.22-28.7Q473.92-30.8 473.27-32.18 472.62-33.55 471.47-34.38 470.32-35.2 468.5-35.52 466.67-35.85 464.02-35.85L464.02-35.85 458.37-35.85Q457.07-35.85 456.77-35.52 456.47-35.2 456.47-34L456.47-34Z" opacity="1" transform="matrix(1,0,0,1,0,0)" fill="#0465b3" class="undefined-text-0" data-fill-palette-color="primary" id="text-0"></path></svg></g></svg></g></svg></g></svg></g><g transform="matrix(1,0,0,1,403.254559696005,0)"><svg viewBox="0 0 45.27847599874175 45.27847599874175" height="45.27847599874175" width="45.27847599874175"><g data-palette-color="#035198"><rect width="12.37611677298941" height="45.27847599874175" fill="#035198" stroke="transparent" data-fill-palette-color="accent" x="0" fill-opacity="1"></rect><rect width="12.37611677298941" height="45.27847599874175" fill="#035198" stroke="transparent" data-fill-palette-color="accent" x="15.092825332913915" fill-opacity="0.75"></rect><rect width="12.37611677298941" height="45.27847599874175" fill="#035198" stroke="transparent" data-fill-palette-color="accent" x="30.18565066582783" fill-opacity="0.5"></rect></g></svg></g></svg></g></svg><rect width="395.52" height="39.92692043136407" fill="none" stroke="none" visibility="hidden"></rect></g></svg></g></svg>