<svg xmlns="http://www.w3.org/2000/svg" version="1.1" xmlns:xlink="http://www.w3.org/1999/xlink" xmlns:svgjs="http://svgjs.dev/svgjs" width="1000" height="1000" viewBox="0 0 1000 1000"><rect width="1000" height="1000" fill="#ffffff"></rect><g transform="matrix(0.7,0,0,0.7,149.57575762001784,455.59151506851896)"><svg viewBox="0 0 396 51" data-background-color="#ffffff" preserveAspectRatio="xMidYMid meet" height="128" width="1000" xmlns="http://www.w3.org/2000/svg" xmlns:xlink="http://www.w3.org/1999/xlink"><defs></defs><g id="tight-bounds" transform="matrix(1,0,0,1,0.24000002503868245,-0.22284897873291243)"><svg viewBox="0 0 395.52 51.44569795746583" height="51.44569795746583" width="395.52"><g><svg viewBox="0 0 466.5746735848784 60.687853286435235" height="51.44569795746583" width="395.52"><g transform="matrix(1,0,0,1,0,8.387395063465362)"><svg viewBox="0 0 395.52 43.91306315950451" height="43.91306315950451" width="395.52"><g><svg viewBox="0 0 395.52 43.91306315950451" height="43.91306315950451" width="395.52"><g><svg viewBox="0 0 395.52 43.91306315950451" height="43.91306315950451" width="395.52"><g transform="matrix(1,0,0,1,0,0)"><svg width="395.52" viewBox="2.200000047683716 -34.790000915527344 319.2599792480469 35.45000076293945" height="43.91306315950451" data-palette-color="#0466b3"><path d="M13.11-4.64L13.11-4.64Q13.11-3.81 13.37-3.25 13.62-2.69 14.1-2.34 14.58-2 15.27-1.86 15.97-1.71 16.82-1.71L16.82-1.71Q17.02-1.71 17.02-1.51L17.02-1.51 17.02-0.2Q17.02-0.12 16.99-0.06 16.97 0 16.82 0L16.82 0 2.39 0Q2.27 0 2.23-0.07 2.2-0.15 2.2-0.2L2.2-0.2 2.2-1.51Q2.2-1.56 2.23-1.64 2.27-1.71 2.39-1.71L2.39-1.71Q3.25-1.71 3.94-1.82 4.64-1.93 5.13-2.29 5.62-2.66 5.88-3.34 6.15-4.03 6.15-5.2L6.15-5.2 6.15-29.79Q6.15-30.62 5.9-31.18 5.64-31.74 5.16-32.08 4.69-32.42 3.99-32.57 3.3-32.71 2.44-32.71L2.44-32.71Q2.25-32.71 2.25-32.91L2.25-32.91 2.25-34.23Q2.25-34.42 2.44-34.42L2.44-34.42 16.87-34.42Q16.99-34.42 17.03-34.35 17.07-34.28 17.07-34.23L17.07-34.23 17.07-32.91Q17.07-32.86 17.03-32.79 16.99-32.71 16.87-32.71L16.87-32.71Q16.02-32.71 15.32-32.6 14.62-32.5 14.14-32.13 13.65-31.76 13.38-31.08 13.11-30.4 13.11-29.22L13.11-29.22 13.11-4.64ZM37.01 0.66L37.01 0.66Q36.42 0.66 36.25 0.12L36.25 0.12 23.53-30.69Q23.31-31.23 22.96-31.6 22.6-31.98 22.24-32.24 21.87-32.5 21.53-32.63 21.19-32.76 20.97-32.81L20.97-32.81Q20.8-32.86 20.58-32.91 20.36-32.96 20.15-33 19.94-33.03 19.77-33.06 19.6-33.08 19.58-33.08L19.58-33.08Q19.38-33.08 19.38-33.28L19.38-33.28 19.38-34.23Q19.38-34.42 19.58-34.42L19.58-34.42 36.18-34.42Q36.33-34.42 36.35-34.36 36.37-34.3 36.37-34.23L36.37-34.23 36.37-33.28Q36.37-33.23 36.34-33.15 36.3-33.08 36.18-33.08L36.18-33.08 35.81-33.08Q35.2-32.98 34.43-32.89 33.66-32.79 32.99-32.53 32.32-32.28 31.87-31.77 31.42-31.27 31.42-30.4L31.42-30.4Q31.42-30.08 31.53-29.66 31.64-29.25 31.76-28.98L31.76-28.98 40.48-7.84Q40.5-7.76 40.54-7.73 40.57-7.69 40.62-7.64L40.62-7.64Q40.67-7.59 40.72-7.59L40.72-7.59Q40.89-7.59 40.99-7.86L40.99-7.86 49-29.49Q49.09-29.76 49.2-29.99 49.31-30.22 49.31-30.47L49.31-30.47Q49.31-31.32 48.75-31.95 48.19-32.57 47.19-32.74L47.19-32.74Q47.04-32.76 46.71-32.81 46.38-32.86 46.02-32.92 45.65-32.98 45.31-33.03 44.97-33.08 44.82-33.08L44.82-33.08Q44.63-33.08 44.63-33.28L44.63-33.28 44.63-34.23Q44.63-34.28 44.65-34.35 44.68-34.42 44.82-34.42L44.82-34.42 57.88-34.42Q58.03-34.42 58.05-34.35 58.08-34.28 58.08-34.23L58.08-34.23 58.08-33.28Q58.08-33.2 58.05-33.14 58.03-33.08 57.88-33.08L57.88-33.08 56.98-33.08Q55.64-32.81 54.77-32.04 53.9-31.27 53.31-30.24 52.71-29.2 52.29-28.02 51.88-26.83 51.46-25.73L51.46-25.73 42.01-0.2Q41.79 0.42 41.48 0.54 41.16 0.66 40.6 0.66L40.6 0.66 37.01 0.66ZM58.37-0.54L58.37-1.25Q58.37-1.27 58.39-1.35 58.42-1.44 58.56-1.44L58.56-1.44 59.1-1.44Q60.13-1.51 61.2-1.53 62.28-1.54 63.15-1.79 64.03-2.05 64.59-2.7 65.16-3.34 65.16-4.71L65.16-4.71 65.16-29.71Q65.16-30.66 64.77-31.26 64.37-31.86 63.74-32.23 63.11-32.59 62.3-32.78 61.49-32.96 60.66-33.08L60.66-33.08 60.15-33.08Q60.03-33.08 59.99-33.15 59.96-33.23 59.96-33.28L59.96-33.28 59.96-34.23Q59.96-34.28 59.99-34.35 60.03-34.42 60.15-34.42L60.15-34.42 84.47-34.42Q84.91-34.42 85.1-34.27 85.3-34.11 85.35-33.57L85.35-33.57 85.79-25.76Q85.79-25.63 85.58-25.57 85.37-25.51 85.2-25.51L85.2-25.51Q85-25.51 84.81-25.56 84.61-25.61 84.54-25.71L84.54-25.71Q84.37-25.95 84.3-26.43 84.22-26.9 84.14-27.49 84.05-28.08 83.89-28.71 83.74-29.35 83.42-29.88 83.1-30.42 82.55-30.82 82-31.23 81.15-31.37L81.15-31.37 72.43-31.37Q72.11-31.37 72.11-31.05L72.11-31.05 72.11-19.41Q72.11-19.17 72.36-19.17L72.36-19.17 79.34-19.17Q79.95-19.17 80.55-19.32 81.15-19.48 81.6-19.9 82.05-20.31 82.33-21.06 82.61-21.8 82.61-22.97L82.61-22.97Q82.61-23.17 82.81-23.17L82.81-23.17 83.76-23.17Q83.95-23.17 83.95-22.97L83.95-22.97 83.95-11.79Q83.95-11.67 83.88-11.63 83.81-11.6 83.76-11.6L83.76-11.6 82.81-11.6Q82.69-11.6 82.65-11.67 82.61-11.74 82.61-11.79L82.61-11.79Q82.61-13.16 82.33-14 82.05-14.84 81.59-15.32 81.12-15.8 80.52-15.95 79.93-16.11 79.27-16.11L79.27-16.11 72.36-16.11Q72.11-16.11 72.11-15.87L72.11-15.87 72.11-5.2Q72.11-4.49 72.33-4.06 72.55-3.64 72.93-3.42 73.31-3.2 73.8-3.13 74.29-3.05 74.82-3.05L74.82-3.05 81.49-3.05Q82.91-3.05 83.86-3.7 84.81-4.35 85.4-5.27 85.98-6.2 86.26-7.2 86.54-8.2 86.62-8.91L86.62-8.91Q86.66-9.23 86.93-9.41 87.2-9.59 87.54-9.59L87.54-9.59Q87.67-9.59 87.84-9.5 88.01-9.4 88.01-9.28L88.01-9.28 87.2-0.34Q87.15-0.22 87.07-0.11 86.98 0 86.86 0L86.86 0 58.56 0Q58.42 0 58.39-0.09 58.37-0.17 58.37-0.2L58.37-0.2 58.37-0.54ZM103.7-0.2L103.7-1.15Q103.7-1.34 103.9-1.34L103.9-1.34Q104.36-1.37 104.98-1.48 105.61-1.59 106.25-1.94 106.9-2.29 107.51-2.99 108.12-3.69 108.53-4.91L108.53-4.91 118.35-33.37Q118.35-33.35 118.36-33.4 118.37-33.45 118.37-33.5L118.37-33.5Q118.37-33.67 118.24-33.92 118.11-34.18 118.11-34.3L118.11-34.3Q118.11-34.42 118.2-34.42L118.2-34.42 125.28-34.42Q125.33-34.4 125.42-34.38 125.5-34.35 125.55-34.23L125.55-34.23 135.88-5.25Q136.12-4.57 136.34-4.08 136.56-3.59 136.87-3.21 137.17-2.83 137.64-2.53 138.1-2.22 138.83-1.9L138.83-1.9Q139.17-1.73 139.76-1.54 140.35-1.34 140.88-1.34L140.88-1.34Q141.01-1.34 141.04-1.27 141.08-1.2 141.08-1.12L141.08-1.12 141.08-0.2Q141.08-0.15 141.04-0.07 141.01 0 140.88 0L140.88 0 123.74 0Q123.62 0 123.59-0.07 123.55-0.15 123.55-0.2L123.55-0.2 123.55-1.15Q123.55-1.2 123.59-1.27 123.62-1.34 123.74-1.34L123.74-1.34Q123.84-1.34 123.94-1.35 124.04-1.37 124.09-1.37L124.09-1.37Q124.36-1.39 124.86-1.42 125.36-1.44 125.94-1.5 126.53-1.56 127.13-1.7 127.72-1.83 128.21-2.09 128.7-2.34 129.02-2.76 129.34-3.17 129.34-3.78L129.34-3.78Q129.34-3.93 129.29-4.13L129.29-4.13 126.09-12.94Q126.06-12.99 126-13.16 125.94-13.33 125.81-13.51 125.67-13.7 125.47-13.84 125.26-13.99 124.97-13.99L124.97-13.99 116.15-13.99Q115.83-13.99 115.62-13.84 115.4-13.7 115.25-13.53 115.1-13.35 115.02-13.18 114.93-13.01 114.93-12.99L114.93-12.99Q114.15-10.69 113.61-9.12 113.08-7.54 112.72-6.52 112.37-5.49 112.17-4.93 111.98-4.37 111.89-4.11 111.81-3.86 111.79-3.8 111.78-3.74 111.78-3.74L111.78-3.74Q111.78-3.66 111.81-3.58 111.83-3.49 111.86-3.42L111.86-3.42Q112.05-2.81 112.58-2.4 113.1-2 113.78-1.77 114.47-1.54 115.19-1.44 115.91-1.34 116.47-1.34L116.47-1.34 117.1-1.34Q117.23-1.34 117.26-1.27 117.3-1.2 117.3-1.15L117.3-1.15 117.3-0.2Q117.3-0.15 117.26-0.07 117.23 0 117.1 0L117.1 0 103.9 0Q103.7 0 103.7-0.2L103.7-0.2ZM119.57-26.39L116.49-17.5Q116.45-17.38 116.42-17.26 116.4-17.14 116.4-17.02L116.4-17.02Q116.4-16.87 116.47-16.78 116.54-16.7 116.76-16.7L116.76-16.7 124.09-16.7Q124.36-16.7 124.44-16.81 124.53-16.92 124.53-17.07L124.53-17.07Q124.53-17.19 124.5-17.29 124.48-17.38 124.43-17.5L124.43-17.5 121.18-26.42Q121.06-26.76 120.82-26.92 120.57-27.08 120.38-27.08L120.38-27.08Q120.18-27.08 119.94-26.89 119.69-26.71 119.57-26.39L119.57-26.39ZM154.31-4.64L154.31-4.64Q154.31-3.81 154.57-3.25 154.82-2.69 155.3-2.34 155.77-2 156.47-1.86 157.17-1.71 158.02-1.71L158.02-1.71Q158.22-1.71 158.22-1.51L158.22-1.51 158.22-0.2Q158.22-0.12 158.19-0.06 158.17 0 158.02 0L158.02 0 143.59 0Q143.47 0 143.43-0.07 143.4-0.15 143.4-0.2L143.4-0.2 143.4-1.51Q143.4-1.56 143.43-1.64 143.47-1.71 143.59-1.71L143.59-1.71Q144.45-1.71 145.14-1.82 145.84-1.93 146.33-2.29 146.81-2.66 147.08-3.34 147.35-4.03 147.35-5.2L147.35-5.2 147.35-29.79Q147.35-30.62 147.09-31.18 146.84-31.74 146.36-32.08 145.89-32.42 145.19-32.57 144.49-32.71 143.64-32.71L143.64-32.71Q143.44-32.71 143.44-32.91L143.44-32.91 143.44-34.23Q143.44-34.42 143.64-34.42L143.64-34.42 158.07-34.42Q158.19-34.42 158.23-34.35 158.26-34.28 158.26-34.23L158.26-34.23 158.26-32.91Q158.26-32.86 158.23-32.79 158.19-32.71 158.07-32.71L158.07-32.71Q157.21-32.71 156.52-32.6 155.82-32.5 155.33-32.13 154.85-31.76 154.58-31.08 154.31-30.4 154.31-29.22L154.31-29.22 154.31-4.64ZM161.53-0.98L161.53-1.27Q161.53-1.29 161.56-1.38 161.58-1.46 161.73-1.46L161.73-1.46Q161.87-1.46 162.19-1.51 162.51-1.56 162.85-1.61 163.19-1.66 163.49-1.72 163.78-1.78 163.9-1.81L163.9-1.81Q165.29-2.12 165.84-2.84 166.39-3.56 166.39-4.64L166.39-4.64 166.39-29.44Q166.39-30.66 165.88-31.37 165.37-32.08 164.69-32.43 164.02-32.79 163.4-32.87 162.78-32.96 162.56-32.96L162.56-32.96 161.63-32.96Q161.51-32.96 161.47-33.03 161.44-33.11 161.44-33.15L161.44-33.15 161.44-34.23Q161.44-34.28 161.46-34.34 161.48-34.4 161.63-34.42L161.63-34.42Q161.65-34.42 161.74-34.42 161.83-34.42 162.09-34.44 162.36-34.45 162.88-34.46 163.39-34.47 164.32-34.5L164.32-34.5Q165.66-34.52 167.18-34.57 168.71-34.62 170.27-34.67 171.84-34.72 173.36-34.75 174.89-34.79 176.23-34.79L176.23-34.79 178.7-34.79Q180.62-34.79 182.63-34.13 184.63-33.47 186.25-32.19 187.88-30.91 188.91-29 189.95-27.1 189.95-24.61L189.95-24.61Q189.95-23 189.51-21.74 189.07-20.48 188.3-19.52 187.53-18.55 186.47-17.82 185.41-17.09 184.16-16.53L184.16-16.53 191.56-4.81Q192.51-3.3 193.78-2.06 195.05-0.83 196.74-0.34L196.74-0.34Q196.93-0.29 196.97-0.21 197.01-0.12 197.01 0L197.01 0Q197.01 0.37 196.81 0.49 196.62 0.61 196.2 0.61L196.2 0.61Q195.18 0.61 193.87 0.48 192.56 0.34 191.24 0.04 189.93-0.27 188.74-0.76 187.56-1.25 186.75-1.98L186.75-1.98Q185.97-2.66 185.17-3.71 184.36-4.76 183.54-5.97 182.72-7.18 181.93-8.48 181.14-9.79 180.39-11.04 179.65-12.28 178.96-13.35 178.28-14.43 177.72-15.19L177.72-15.19 173.91-15.45Q173.89-15.45 173.72-15.45 173.54-15.45 173.47-15.41L173.47-15.41Q173.4-15.36 173.37-15.31 173.35-15.26 173.35-15.11L173.35-15.11 173.35-4.71Q173.35-4.05 173.52-3.56 173.69-3.08 174.09-2.72 174.5-2.37 175.14-2.15 175.79-1.93 176.72-1.81L176.72-1.81Q176.86-1.78 177.15-1.73 177.43-1.68 177.76-1.62 178.09-1.56 178.4-1.51 178.72-1.46 178.94-1.46L178.94-1.46Q179.09-1.46 179.11-1.39 179.14-1.32 179.14-1.27L179.14-1.27 179.14-0.2Q179.14-0.15 179.1-0.07 179.06 0 178.94 0L178.94 0 161.73 0Q161.61 0 161.57-0.34 161.53-0.68 161.53-0.98L161.53-0.98ZM173.35-18.63L173.4-17.9Q173.42-17.7 173.51-17.54 173.59-17.38 173.86-17.36L173.86-17.36Q174.08-17.33 174.52-17.27 174.96-17.21 175.74-17.21L175.74-17.21Q177.89-17.21 179.28-17.87 180.67-18.53 181.48-19.64 182.28-20.75 182.59-22.19 182.9-23.63 182.9-25.2L182.9-25.2Q182.9-26.83 182.38-28.3 181.87-29.76 180.95-30.83 180.04-31.91 178.76-32.54 177.48-33.18 175.94-33.18L175.94-33.18Q175.6-33.18 175.4-33.17 175.2-33.15 175.02-33.14 174.84-33.13 174.61-33.12 174.37-33.11 173.96-33.08L173.96-33.08Q173.81-33.08 173.58-33.02 173.35-32.96 173.35-32.69L173.35-32.69 173.35-18.63ZM198.47 0L198.47 0Q198.35 0 198.31-0.07 198.27-0.15 198.27-0.2L198.27-0.2 198.27-1.51Q198.27-1.56 198.3-1.64 198.32-1.71 198.47-1.71L198.47-1.71 199.05-1.71Q199.13-1.71 199.53-1.75 199.93-1.78 200.46-1.87 200.98-1.95 201.55-2.1 202.11-2.25 202.5-2.47L202.5-2.47Q203.35-2.95 203.77-3.72 204.18-4.49 204.18-5.44L204.18-5.44 204.18-29.81Q204.18-30.69 203.61-31.25 203.03-31.81 202.24-32.14 201.45-32.47 200.63-32.59 199.81-32.71 199.32-32.71L199.32-32.71 198.79-32.71Q198.66-32.71 198.63-32.8 198.59-32.89 198.59-32.91L198.59-32.91 198.59-34.23Q198.59-34.28 198.63-34.35 198.66-34.42 198.79-34.42L198.79-34.42 217.51-34.42Q217.63-34.42 217.67-34.35 217.71-34.28 217.71-34.23L217.71-34.23 217.71-32.91Q217.71-32.86 217.67-32.79 217.63-32.71 217.51-32.71L217.51-32.71 216.46-32.71Q215.09-32.71 213.92-32.5 212.75-32.28 212.02-32.01L212.02-32.01Q211.46-31.81 211.3-31.36 211.14-30.91 211.14-29.81L211.14-29.81 211.14-4.2Q211.19-3.78 211.58-3.42 211.97-3.05 212.46-3.05L212.46-3.05 221-3.05Q221.86-3.05 222.63-3.42 223.4-3.78 224.05-4.36 224.71-4.93 225.28-5.62 225.84-6.3 226.3-6.93 226.76-7.57 227.13-8.07 227.5-8.57 227.77-8.79L227.77-8.79Q227.89-8.86 228.05-8.94 228.21-9.01 228.42-9.01L228.42-9.01Q228.84-9.01 228.84-8.69L228.84-8.69Q228.84-8.54 228.77-8.4L228.77-8.4 224.71-0.44Q224.62-0.24 224.49-0.12 224.37 0 224.2 0L224.2 0 198.47 0ZM242.12-4.64L242.12-4.64Q242.12-3.81 242.38-3.25 242.63-2.69 243.11-2.34 243.58-2 244.28-1.86 244.98-1.71 245.83-1.71L245.83-1.71Q246.02-1.71 246.02-1.51L246.02-1.51 246.02-0.2Q246.02-0.12 246-0.06 245.98 0 245.83 0L245.83 0 231.4 0Q231.28 0 231.24-0.07 231.21-0.15 231.21-0.2L231.21-0.2 231.21-1.51Q231.21-1.56 231.24-1.64 231.28-1.71 231.4-1.71L231.4-1.71Q232.26-1.71 232.95-1.82 233.65-1.93 234.14-2.29 234.62-2.66 234.89-3.34 235.16-4.03 235.16-5.2L235.16-5.2 235.16-29.79Q235.16-30.62 234.9-31.18 234.65-31.74 234.17-32.08 233.7-32.42 233-32.57 232.3-32.71 231.45-32.71L231.45-32.71Q231.25-32.71 231.25-32.91L231.25-32.91 231.25-34.23Q231.25-34.42 231.45-34.42L231.45-34.42 245.88-34.42Q246-34.42 246.04-34.35 246.07-34.28 246.07-34.23L246.07-34.23 246.07-32.91Q246.07-32.86 246.04-32.79 246-32.71 245.88-32.71L245.88-32.71Q245.02-32.71 244.33-32.6 243.63-32.5 243.14-32.13 242.66-31.76 242.39-31.08 242.12-30.4 242.12-29.22L242.12-29.22 242.12-4.64ZM249.93 0L249.93 0Q249.88 0 249.81-0.06 249.73-0.12 249.73-0.2L249.73-0.2 249.73-1.27Q249.73-1.46 249.93-1.46L249.93-1.46Q250.2-1.46 250.54-1.46 250.88-1.46 251.21-1.49 251.54-1.51 251.81-1.54 252.08-1.56 252.22-1.64L252.22-1.64Q252.83-1.93 253.22-2.42 253.62-2.91 253.82-3.54 254.03-4.17 254.1-4.93 254.18-5.69 254.18-6.54L254.18-6.54 254.18-30.93Q254.18-31.59 253.65-31.99 253.13-32.4 252.43-32.6 251.74-32.81 251.02-32.89 250.29-32.96 249.93-32.96L249.93-32.96Q249.81-32.96 249.77-33.03 249.73-33.11 249.73-33.15L249.73-33.15 249.73-34.23Q249.73-34.28 249.77-34.35 249.81-34.42 249.93-34.42L249.93-34.42 260.99-34.42 282.03-11.13Q282.16-11.01 282.2-10.95 282.25-10.89 282.33-10.89L282.33-10.89Q282.42-10.89 282.45-10.96 282.47-11.04 282.47-11.11L282.47-11.11 282.47-25.61Q282.47-28.03 282.3-29.48 282.13-30.93 281.67-31.7 281.2-32.47 280.42-32.71 279.64-32.96 278.42-32.96L278.42-32.96 277.17-32.96Q277.05-32.96 277.02-33.03 276.98-33.11 276.98-33.15L276.98-33.15 276.98-34.23Q276.98-34.28 277.02-34.35 277.05-34.42 277.17-34.42L277.17-34.42 290.6-34.42Q290.75-34.42 290.77-34.35 290.8-34.28 290.8-34.23L290.8-34.23 290.8-33.15Q290.8-33.11 290.76-33.03 290.72-32.96 290.6-32.96L290.6-32.96Q290.11-32.96 289.35-32.76 288.58-32.57 287.84-32.2 287.11-31.84 286.59-31.3 286.06-30.76 286.06-30.08L286.06-30.08 286.06-1.2Q286.06-0.78 285.87-0.5 285.67-0.22 285.37-0.05 285.06 0.12 284.71 0.21 284.35 0.29 284.06 0.29L284.06 0.29Q283.57 0.29 282.92 0.09 282.28-0.12 281.64-0.83L281.64-0.83 258.6-26.39Q258.42-26.56 258.35-26.6 258.28-26.64 258.16-26.64L258.16-26.64Q258.03-26.64 258.03-26.39L258.03-26.39 258.03-4.59Q258.03-3.91 258.36-3.41 258.69-2.91 259.21-2.55 259.72-2.2 260.34-1.99 260.96-1.78 261.56-1.66 262.16-1.54 262.64-1.5 263.11-1.46 263.36-1.46L263.36-1.46Q263.48-1.46 263.53-1.37L263.53-1.37Q263.55-1.32 263.55-1.27L263.55-1.27 263.55-0.2Q263.55-0.15 263.52-0.07 263.48 0 263.36 0L263.36 0 249.93 0ZM291.82-0.54L291.82-1.25Q291.82-1.27 291.85-1.35 291.87-1.44 292.02-1.44L292.02-1.44 292.55-1.44Q293.58-1.51 294.65-1.53 295.73-1.54 296.61-1.79 297.48-2.05 298.05-2.7 298.61-3.34 298.61-4.71L298.61-4.71 298.61-29.71Q298.61-30.66 298.22-31.26 297.83-31.86 297.19-32.23 296.56-32.59 295.75-32.78 294.95-32.96 294.12-33.08L294.12-33.08 293.6-33.08Q293.48-33.08 293.44-33.15 293.41-33.23 293.41-33.28L293.41-33.28 293.41-34.23Q293.41-34.28 293.44-34.35 293.48-34.42 293.6-34.42L293.6-34.42 317.92-34.42Q318.36-34.42 318.55-34.27 318.75-34.11 318.8-33.57L318.8-33.57 319.24-25.76Q319.24-25.63 319.03-25.57 318.82-25.51 318.65-25.51L318.65-25.51Q318.46-25.51 318.26-25.56 318.07-25.61 317.99-25.71L317.99-25.71Q317.82-25.95 317.75-26.43 317.68-26.9 317.59-27.49 317.5-28.08 317.35-28.71 317.19-29.35 316.87-29.88 316.55-30.42 316-30.82 315.45-31.23 314.6-31.37L314.6-31.37 305.88-31.37Q305.57-31.37 305.57-31.05L305.57-31.05 305.57-19.41Q305.57-19.17 305.81-19.17L305.81-19.17 312.79-19.17Q313.4-19.17 314-19.32 314.6-19.48 315.05-19.9 315.5-20.31 315.78-21.06 316.06-21.8 316.06-22.97L316.06-22.97Q316.06-23.17 316.26-23.17L316.26-23.17 317.21-23.17Q317.41-23.17 317.41-22.97L317.41-22.97 317.41-11.79Q317.41-11.67 317.33-11.63 317.26-11.6 317.21-11.6L317.21-11.6 316.26-11.6Q316.14-11.6 316.1-11.67 316.06-11.74 316.06-11.79L316.06-11.79Q316.06-13.16 315.78-14 315.5-14.84 315.04-15.32 314.57-15.8 313.98-15.95 313.38-16.11 312.72-16.11L312.72-16.11 305.81-16.11Q305.57-16.11 305.57-15.87L305.57-15.87 305.57-5.2Q305.57-4.49 305.79-4.06 306.01-3.64 306.38-3.42 306.76-3.2 307.25-3.13 307.74-3.05 308.28-3.05L308.28-3.05 314.94-3.05Q316.36-3.05 317.31-3.7 318.26-4.35 318.85-5.27 319.43-6.2 319.71-7.2 319.99-8.2 320.07-8.91L320.07-8.91Q320.12-9.23 320.39-9.41 320.65-9.59 321-9.59L321-9.59Q321.12-9.59 321.29-9.5 321.46-9.4 321.46-9.28L321.46-9.28 320.65-0.34Q320.6-0.22 320.52-0.11 320.43 0 320.31 0L320.31 0 292.02 0Q291.87 0 291.85-0.09 291.82-0.17 291.82-0.2L291.82-0.2 291.82-0.54Z" opacity="1" transform="matrix(1,0,0,1,0,0)" fill="#000000" class="undefined-text-0" data-fill-palette-color="primary" id="text-0"></path></svg></g></svg></g></svg></g></svg></g><g transform="matrix(1,0,0,1,405.8868202984432,0)"><svg viewBox="0 0 60.687853286435235 60.687853286435235" height="60.687853286435235" width="60.687853286435235"><g data-palette-color="#055299"><rect width="16.58801323162563" height="60.687853286435235" fill="#000000" stroke="transparent" data-fill-palette-color="accent" x="0" fill-opacity="1"></rect><rect width="16.58801323162563" height="60.687853286435235" fill="#000000" stroke="transparent" data-fill-palette-color="accent" x="20.229284428811745" fill-opacity="0.75"></rect><rect width="16.58801323162563" height="60.687853286435235" fill="#000000" stroke="transparent" data-fill-palette-color="accent" x="40.45856885762349" fill-opacity="0.5"></rect></g></svg></g></svg></g></svg><rect width="395.52" height="51.44569795746583" fill="none" stroke="none" visibility="hidden"></rect></g></svg></g></svg>